<?xml version="1.0" standalone="no"?>
<!DOCTYPE svg PUBLIC "-//W3C//DTD SVG 20010904//EN"
 "http://www.w3.org/TR/2001/REC-SVG-20010904/DTD/svg10.dtd">
<svg version="1.0" xmlns="http://www.w3.org/2000/svg"
 width="200.000000pt" height="200.000000pt" viewBox="0 0 200.000000 200.000000"
 preserveAspectRatio="xMidYMid meet">

<g transform="translate(0.000000,200.000000) scale(0.100000,-0.100000)"
fill="#000000" stroke="none">
<path d="M344 1711 c-17 -10 -42 -34 -55 -53 l-24 -33 0 -626 0 -626 29 -37
c49 -65 54 -66 452 -66 341 0 358 1 393 21 20 11 48 36 61 56 23 34 25 46 28
189 3 100 0 159 -7 173 -15 28 -66 29 -81 2 -5 -11 -10 -84 -10 -165 0 -203
36 -186 -391 -186 -324 0 -340 1 -359 20 -11 11 -22 30 -25 42 -3 13 -4 283
-3 601 l3 579 24 19 c22 18 43 19 361 19 426 0 390 17 390 -186 0 -81 5 -154
10 -165 15 -27 66 -26 81 2 7 14 10 73 7 173 -3 143 -5 155 -28 189 -13 20
-41 45 -61 56 -35 20 -52 21 -400 21 -340 0 -366 -1 -395 -19z"/>
<path d="M1446 1269 c-20 -29 -13 -42 66 -132 37 -43 68 -82 68 -87 0 -6 -174
-10 -468 -10 -351 0 -471 -3 -480 -12 -17 -17 -15 -44 4 -62 14 -14 72 -16
486 -16 l470 0 -64 -72 c-86 -96 -98 -117 -87 -145 6 -17 17 -23 38 -23 25 0
45 18 140 127 146 167 145 156 4 316 -59 67 -112 125 -118 129 -19 14 -44 8
-59 -13z"/>
</g>
</svg>
